<svg xmlns="http://www.w3.org/2000/svg" viewBox="0 0 320 180" role="img" preserveAspectRatio="xMidYMid slice"><rect width="320" height="180" fill="#1a2140"/><rect width="320" height="180" fill="#1a2140"/><line x1="88.0" y1="60.0" x2="110.0" y2="60.0" stroke="#f4c542" stroke-width="3" stroke-linecap="round"/><line x1="86.9" y1="64.0" x2="106.0" y2="75.0" stroke="#f4c542" stroke-width="3" stroke-linecap="round"/><line x1="84.0" y1="66.9" x2="95.0" y2="86.0" stroke="#f4c542" stroke-width="3" stroke-linecap="round"/><line x1="80.0" y1="68.0" x2="80.0" y2="90.0" stroke="#f4c542" stroke-width="3" stroke-linecap="round"/><line x1="76.0" y1="66.9" x2="65.0" y2="86.0" stroke="#f4c542" stroke-width="3" stroke-linecap="round"/><line x1="73.1" y1="64.0" x2="54.0" y2="75.0" stroke="#f4c542" stroke-width="3" stroke-linecap="round"/><line x1="72.0" y1="60.0" x2="50.0" y2="60.0" stroke="#f4c542" stroke-width="3" stroke-linecap="round"/><line x1="73.1" y1="56.0" x2="54.0" y2="45.0" stroke="#f4c542" stroke-width="3" stroke-linecap="round"/><line x1="76.0" y1="53.1" x2="65.0" y2="34.0" stroke="#f4c542" stroke-width="3" stroke-linecap="round"/><line x1="80.0" y1="52.0" x2="80.0" y2="30.0" stroke="#f4c542" stroke-width="3" stroke-linecap="round"/><line x1="84.0" y1="53.1" x2="95.0" y2="34.0" stroke="#f4c542" stroke-width="3" stroke-linecap="round"/><line x1="86.9" y1="56.0" x2="106.0" y2="45.0" stroke="#f4c542" stroke-width="3" stroke-linecap="round"/><line x1="178.0" y1="44.0" x2="200.0" y2="44.0" stroke="#d9608a" stroke-width="3" stroke-linecap="round"/><line x1="176.9" y1="48.0" x2="196.0" y2="59.0" stroke="#d9608a" stroke-width="3" stroke-linecap="round"/><line x1="174.0" y1="50.9" x2="185.0" y2="70.0" stroke="#d9608a" stroke-width="3" stroke-linecap="round"/><line x1="170.0" y1="52.0" x2="170.0" y2="74.0" stroke="#d9608a" stroke-width="3" stroke-linecap="round"/><line x1="166.0" y1="50.9" x2="155.0" y2="70.0" stroke="#d9608a" stroke-width="3" stroke-linecap="round"/><line x1="163.1" y1="48.0" x2="144.0" y2="59.0" stroke="#d9608a" stroke-width="3" stroke-linecap="round"/><line x1="162.0" y1="44.0" x2="140.0" y2="44.0" stroke="#d9608a" stroke-width="3" stroke-linecap="round"/><line x1="163.1" y1="40.0" x2="144.0" y2="29.0" stroke="#d9608a" stroke-width="3" stroke-linecap="round"/><line x1="166.0" y1="37.1" x2="155.0" y2="18.0" stroke="#d9608a" stroke-width="3" stroke-linecap="round"/><line x1="170.0" y1="36.0" x2="170.0" y2="14.0" stroke="#d9608a" stroke-width="3" stroke-linecap="round"/><line x1="174.0" y1="37.1" x2="185.0" y2="18.0" stroke="#d9608a" stroke-width="3" stroke-linecap="round"/><line x1="176.9" y1="40.0" x2="196.0" y2="29.0" stroke="#d9608a" stroke-width="3" stroke-linecap="round"/><line x1="258.0" y1="70.0" x2="280.0" y2="70.0" stroke="#bcd9e6" stroke-width="3" stroke-linecap="round"/><line x1="256.9" y1="74.0" x2="276.0" y2="85.0" stroke="#bcd9e6" stroke-width="3" stroke-linecap="round"/><line x1="254.0" y1="76.9" x2="265.0" y2="96.0" stroke="#bcd9e6" stroke-width="3" stroke-linecap="round"/><line x1="250.0" y1="78.0" x2="250.0" y2="100.0" stroke="#bcd9e6" stroke-width="3" stroke-linecap="round"/><line x1="246.0" y1="76.9" x2="235.0" y2="96.0" stroke="#bcd9e6" stroke-width="3" stroke-linecap="round"/><line x1="243.1" y1="74.0" x2="224.0" y2="85.0" stroke="#bcd9e6" stroke-width="3" stroke-linecap="round"/><line x1="242.0" y1="70.0" x2="220.0" y2="70.0" stroke="#bcd9e6" stroke-width="3" stroke-linecap="round"/><line x1="243.1" y1="66.0" x2="224.0" y2="55.0" stroke="#bcd9e6" stroke-width="3" stroke-linecap="round"/><line x1="246.0" y1="63.1" x2="235.0" y2="44.0" stroke="#bcd9e6" stroke-width="3" stroke-linecap="round"/><line x1="250.0" y1="62.0" x2="250.0" y2="40.0" stroke="#bcd9e6" stroke-width="3" stroke-linecap="round"/><line x1="254.0" y1="63.1" x2="265.0" y2="44.0" stroke="#bcd9e6" stroke-width="3" stroke-linecap="round"/><line x1="256.9" y1="66.0" x2="276.0" y2="55.0" stroke="#bcd9e6" stroke-width="3" stroke-linecap="round"/><rect y="132" width="320" height="24" fill="#26315c"/><rect x="0" y="89" width="31" height="43" fill="#0f142b"/><rect x="34" y="76" width="20" height="56" fill="#0f142b"/><rect x="57" y="109" width="27" height="23" fill="#0f142b"/><rect x="87" y="96" width="16" height="36" fill="#0f142b"/><rect x="106" y="83" width="23" height="49" fill="#0f142b"/><rect x="132" y="70" width="30" height="62" fill="#0f142b"/><rect x="165" y="103" width="19" height="29" fill="#0f142b"/><rect x="187" y="90" width="26" height="42" fill="#0f142b"/><rect x="216" y="77" width="15" height="55" fill="#0f142b"/><rect x="234" y="110" width="22" height="22" fill="#0f142b"/><rect x="259" y="97" width="29" height="35" fill="#0f142b"/><rect x="291" y="84" width="18" height="48" fill="#0f142b"/><rect x="312" y="71" width="25" height="61" fill="#0f142b"/><rect y="160" width="320" height="20" fill="#15171c"/><rect y="156" width="320" height="4" fill="#d7282f"/></svg>
