<svg xmlns="http://www.w3.org/2000/svg" viewBox="0 0 320 180" role="img" preserveAspectRatio="xMidYMid slice"><rect width="320" height="180" fill="#efe9dd"/><circle cx="282" cy="44" r="22" fill="#008a75"/><rect x="0" y="91" width="27" height="65" fill="#cfc6b5"/><rect x="30" y="124" width="16" height="32" fill="#cfc6b5"/><rect x="49" y="111" width="23" height="45" fill="#cfc6b5"/><rect x="75" y="98" width="30" height="58" fill="#cfc6b5"/><rect x="108" y="131" width="19" height="25" fill="#cfc6b5"/><rect x="130" y="118" width="26" height="38" fill="#cfc6b5"/><rect x="159" y="105" width="15" height="51" fill="#cfc6b5"/><rect x="177" y="92" width="22" height="64" fill="#cfc6b5"/><rect x="202" y="125" width="29" height="31" fill="#cfc6b5"/><rect x="234" y="112" width="18" height="44" fill="#cfc6b5"/><rect x="255" y="99" width="25" height="57" fill="#cfc6b5"/><rect x="283" y="132" width="14" height="24" fill="#cfc6b5"/><rect x="300" y="119" width="21" height="37" fill="#cfc6b5"/><rect x="70" y="40" width="180" height="56" fill="#15171c"/><path d="M60 40 L260 40 L240 26 L80 26Z" fill="#15171c"/><rect x="92" y="96" width="12" height="60" fill="#15171c"/><rect x="136" y="96" width="12" height="60" fill="#15171c"/><rect x="176" y="96" width="12" height="60" fill="#15171c"/><rect x="220" y="96" width="12" height="60" fill="#15171c"/><rect x="80" y="52" width="160" height="6" fill="#008a75"/><rect x="80" y="80" width="160" height="4" fill="#b8914a"/><rect y="160" width="320" height="20" fill="#15171c"/><rect y="156" width="320" height="4" fill="#008a75"/></svg>
