<svg xmlns="http://www.w3.org/2000/svg" viewBox="0 0 320 180" role="img" preserveAspectRatio="xMidYMid slice"><rect width="320" height="180" fill="#efe9dd"/><circle cx="90" cy="60" r="30" fill="#0a7fab"/><rect x="0" y="117" width="31" height="39" fill="#cfc6b5"/><rect x="34" y="104" width="20" height="52" fill="#cfc6b5"/><rect x="57" y="91" width="27" height="65" fill="#cfc6b5"/><rect x="87" y="124" width="16" height="32" fill="#cfc6b5"/><rect x="106" y="111" width="23" height="45" fill="#cfc6b5"/><rect x="132" y="98" width="30" height="58" fill="#cfc6b5"/><rect x="165" y="131" width="19" height="25" fill="#cfc6b5"/><rect x="187" y="118" width="26" height="38" fill="#cfc6b5"/><rect x="216" y="105" width="15" height="51" fill="#cfc6b5"/><rect x="234" y="92" width="22" height="64" fill="#cfc6b5"/><rect x="259" y="125" width="29" height="31" fill="#cfc6b5"/><rect x="291" y="112" width="18" height="44" fill="#cfc6b5"/><rect x="312" y="99" width="25" height="57" fill="#cfc6b5"/><path d="M150 156 L160 30 L170 156Z" fill="#15171c"/><rect x="159" y="8" width="2" height="24" fill="#15171c"/><rect x="146" y="70" width="28" height="12" rx="4" fill="#15171c"/><rect x="149" y="50" width="22" height="8" rx="3" fill="#15171c"/><path d="M150 156 L160 30 L170 156" fill="none" stroke="#bcd9e6" stroke-width="1.2" stroke-dasharray="3 5"/><rect x="146" y="74" width="28" height="3" fill="#bcd9e6"/><rect y="160" width="320" height="20" fill="#15171c"/><rect y="156" width="320" height="4" fill="#0a7fab"/></svg>
