<svg xmlns="http://www.w3.org/2000/svg" viewBox="0 0 320 180" role="img" preserveAspectRatio="xMidYMid slice"><rect width="320" height="180" fill="#efe9dd"/><circle cx="110" cy="84" r="58" fill="none" stroke="#15171c" stroke-width="8"/><rect x="163.0" y="80.0" width="10" height="8" rx="2" fill="#d7282f"/><rect x="155.2" y="109.0" width="10" height="8" rx="2" fill="#d7282f"/><rect x="134.0" y="130.2" width="10" height="8" rx="2" fill="#d7282f"/><rect x="105.0" y="138.0" width="10" height="8" rx="2" fill="#d7282f"/><rect x="76.0" y="130.2" width="10" height="8" rx="2" fill="#d7282f"/><rect x="54.8" y="109.0" width="10" height="8" rx="2" fill="#d7282f"/><rect x="47.0" y="80.0" width="10" height="8" rx="2" fill="#d7282f"/><rect x="54.8" y="51.0" width="10" height="8" rx="2" fill="#d7282f"/><rect x="76.0" y="29.8" width="10" height="8" rx="2" fill="#d7282f"/><rect x="105.0" y="22.0" width="10" height="8" rx="2" fill="#d7282f"/><rect x="134.0" y="29.8" width="10" height="8" rx="2" fill="#d7282f"/><rect x="155.2" y="51.0" width="10" height="8" rx="2" fill="#d7282f"/><path d="M180 156 L180 60 Q210 20 240 90 T300 70 L300 156" stroke="#0a7fab" stroke-width="6" fill="none"/><ellipse cx="160" cy="150" rx="60" ry="12" fill="#fbf8f2" stroke="#15171c" stroke-width="3"/><rect y="160" width="320" height="20" fill="#15171c"/><rect y="156" width="320" height="4" fill="#d7282f"/></svg>
